<svg width="621" height="437" viewBox="0 0 621 437" fill="none" xmlns="http://www.w3.org/2000/svg">
<path d="M294.211 96.5648L251.751 162.185L181.521 127.895" stroke="black" stroke-width="2" stroke-miterlimit="10"/>
<path d="M376.351 73.7349L251.751 162.185L99.3707 150.735" stroke="black" stroke-width="2" stroke-miterlimit="10"/>
<path d="M328.351 422.285H319.781L228.681 94.6048L236.631 92.3948L328.351 422.285Z" fill="black"/>
<path d="M218.881 43.9548L61.9607 177.295C61.9607 177.295 94.2407 187.005 131.741 159.715C131.741 159.715 166.881 166.805 198.761 141.085C198.761 141.085 219.721 144.075 244.771 137.105C269.831 130.135 286.241 116.765 286.241 116.765C326.821 122.345 353.261 98.1348 353.261 98.1348C399.461 102.155 422.101 77.1748 422.101 77.1748L218.881 43.9548Z" fill="white"/>
<path d="M218.881 43.9548L198.761 141.085C166.881 166.815 131.731 159.715 131.731 159.715L218.871 43.9548H218.881Z" fill="#DB5017"/>
<path d="M218.881 43.9548L286.241 116.765C326.831 122.345 353.271 98.1348 353.271 98.1348L218.881 43.9548Z" fill="#DB5017"/>
<path d="M218.881 43.9548L61.9607 177.295C61.9607 177.295 94.2407 187.005 131.741 159.715C131.741 159.715 166.881 166.805 198.761 141.085C198.761 141.085 219.721 144.075 244.771 137.105C269.831 130.135 286.241 116.765 286.241 116.765C326.821 122.345 353.261 98.1348 353.261 98.1348C399.461 102.155 422.101 77.1748 422.101 77.1748L218.881 43.9548Z" stroke="black" stroke-width="0.5" stroke-linecap="round" stroke-linejoin="round"/>
<path d="M223.161 41.4248L218.151 32.9248C217.611 32.0148 216.531 31.5848 215.521 31.8648C214.501 32.1448 213.801 33.0748 213.811 34.1348L213.901 44.0048L194.331 61.7548C194.331 61.7548 200.061 63.1748 222.481 56.9348C244.911 50.7048 249.081 46.5348 249.081 46.5348L223.161 41.4248Z" fill="black"/>
<path d="M211.011 404.555C248.661 377.975 262.251 361.355 262.671 360.835C239.701 368.925 212.261 387.265 190.281 403.825C222.651 368.815 234.921 349.005 235.291 348.395C217.511 359.115 199.711 376.345 185.021 392.765C207.661 354.615 215.111 334.235 215.331 333.605C200.261 347.535 186.471 367.715 175.461 386.585C191.721 340.405 197.831 311.765 198.011 310.885C183.991 330.495 172.201 361.105 163.771 387.355C170.051 340.265 168.601 317.485 168.601 317.485C160.201 336.465 155.521 360.805 152.921 382.685C150.731 333.105 143.761 316.835 143.761 316.835C139.381 337.125 139.731 361.915 141.611 383.865C129.151 340.555 119.301 321.235 119.301 321.235C119.131 341.755 124.371 365.645 130.571 386.585C110.241 339.615 92.6208 321.355 92.1308 320.665C96.7208 343.865 110.191 372.215 123.021 395.505C93.5608 359.335 76.0908 344.685 75.5508 344.235C83.2808 362.575 96.9408 381.785 110.531 398.215C66.3208 360.685 46.1308 352.425 46.1308 352.425C59.9708 372.425 81.8408 391.985 102.021 407.645C61.9808 386.215 45.1108 382.875 44.5008 382.705C58.1508 394.385 73.2508 403.035 88.0208 411.365C74.9708 409.805 52.9708 408.175 37.1508 409.465C37.1508 409.465 66.4007 421.725 105.871 422.295H199.101C252.191 401.605 264.301 388.435 264.301 388.435C247.241 390.745 228.371 397.165 211.011 404.565V404.555Z" fill="#B8C13E"/>
<path d="M222.721 338.135L178.141 422.285H162.581L207.171 338.135H222.721Z" fill="white" stroke="black" stroke-width="0.5" stroke-miterlimit="10"/>
<path d="M222.721 338.135L215.901 351.015H200.351L207.171 338.135H222.721Z" fill="black"/>
<path d="M442.421 338.135L487.001 422.285H502.561L457.981 338.135H442.421Z" fill="white" stroke="black" stroke-width="0.5" stroke-miterlimit="10"/>
<path d="M464.801 351.015H449.241L442.421 338.135H457.981L464.801 351.015Z" fill="black"/>
<path d="M527.081 331.255H164.821V345.025H527.081V331.255Z" fill="white" stroke="black" stroke-width="0.5" stroke-miterlimit="10"/>
<path d="M467.141 384.825L543.591 240.225H559.151L482.701 384.825" fill="white"/>
<path d="M467.141 384.825L543.591 240.225H559.151L482.701 384.825" stroke="black" stroke-width="0.5" stroke-miterlimit="10" stroke-linecap="round"/>
<path d="M349.471 233.085C339.731 231.645 294.631 283.015 279.871 300.165L236.861 320.645C236.861 320.645 234.181 320.455 227.431 320.285C220.811 320.115 224.811 331.005 227.561 331.005H288.961C294.291 326.915 294.131 320.925 293.461 317.445C302.321 313.105 340.301 293.575 347.631 274.775L360.191 282.435L382.141 251.145C382.141 251.145 356.011 234.065 349.461 233.095L349.471 233.085Z" fill="#D97969"/>
<path d="M446.631 287.705L376.451 247.015C369.571 253.775 357.041 274.695 351.881 287.785L410.961 326.935L446.621 287.705H446.631Z" fill="#372EE2"/>
<path d="M380.661 303.645C380.661 303.645 359.961 310.365 354.931 315.135C344.841 324.705 278.221 389.915 278.221 389.915L247.211 410.115C247.211 410.115 236.821 408.155 234.431 409.355C232.241 410.455 231.751 416.155 234.091 419.215H300.701C300.701 419.215 308.781 410.595 305.121 401.125C334.421 382.715 362.891 371.495 370.571 350.475L395.911 343.235L380.651 303.645H380.661Z" fill="#D97969"/>
<path d="M489.691 288.385C489.691 288.385 499.881 313.525 484.981 331.265H475.761L388.871 352.025C388.871 352.025 373.751 334.155 372.101 306.105L432.311 284.655L489.681 288.385H489.691Z" fill="#372EE2"/>
<path d="M417.311 233.665L409.091 248.605L367.761 271.655L372.101 285.625L420.951 273.095C424.831 271.415 428.421 268.195 432.591 261.775C435.381 257.475 441.471 245.385 441.471 245.385L417.301 233.675L417.311 233.665Z" fill="#D97969"/>
<path d="M510.321 236.985L530.251 240.945L539.921 203.395C539.921 203.395 515.541 197.445 505.211 195.115C501.881 194.365 484.901 192.125 481.541 191.685C481.441 191.655 481.341 191.635 481.251 191.605C477.011 191.465 460.071 193.625 460.031 193.655C458.841 193.895 451.791 195.765 441.641 198.445C439.251 207.495 437.301 229.575 429.071 265.455C425.021 269.445 420.001 274.105 412.671 280.975C420.601 285.385 479.741 315.625 499.501 299.915C499.561 289.895 499.241 277.895 499.281 270.245C506.001 255.975 507.301 245.845 510.311 236.985H510.321Z" fill="#E9A134"/>
<path d="M428.781 206.595C426.301 211.415 413.681 234.965 413.681 234.965L434.491 242.845L441.641 198.435C441.641 198.435 431.931 200.465 428.781 206.595Z" fill="#E9A134"/>
<path d="M433.951 242.645L438.071 222.935L429.471 240.945L433.951 242.645Z" fill="black"/>
<path d="M565.221 211.715C560.741 208.575 539.711 204.215 539.711 204.215L535.611 220.105L504.111 236.375C498.891 238.995 495.521 245.145 491.991 251.005C491.851 251.235 485.591 261.625 485.061 263.225C484.531 264.825 485.091 275.075 485.341 277.305C485.661 280.205 490.021 279.085 490.341 276.165C490.341 276.145 490.341 276.125 490.341 276.105C490.511 277.205 490.651 278.005 490.721 278.255C491.421 280.845 495.551 280.355 496.101 277.255C496.201 276.685 496.301 275.605 496.391 274.325C496.521 275.285 496.661 275.995 496.781 276.235C497.611 277.835 501.451 277.455 501.681 273.305C501.771 271.745 501.781 270.735 501.771 268.035C501.921 269.115 502.031 269.925 502.081 270.205C502.351 271.675 505.981 271.445 506.391 269.065C506.581 267.935 507.041 261.195 507.371 257.525C510.791 255.135 511.941 252.485 512.331 250.945C525.061 248.655 560.021 242.155 566.961 238.525C575.481 234.075 575.231 218.735 565.211 211.715H565.221Z" fill="#D97969"/>
<path d="M490.311 275.165C490.311 275.165 489.971 265.445 490.311 263.675C490.651 261.905 492.321 257.645 492.321 257.645" stroke="black" stroke-width="0.5" stroke-miterlimit="10" stroke-linecap="round"/>
<path d="M496.341 273.735C496.341 273.735 496.051 264.915 496.231 263.665C496.461 262.065 497.421 257.725 497.421 257.725" stroke="black" stroke-width="0.5" stroke-miterlimit="10" stroke-linecap="round"/>
<path d="M501.711 267.425V263.535C501.711 261.985 502.221 257.795 502.221 257.795" stroke="black" stroke-width="0.5" stroke-miterlimit="10" stroke-linecap="round"/>
<path d="M304.561 422.285H231.371C230.521 422.285 229.831 421.595 229.831 420.745C229.831 419.895 230.521 419.205 231.371 419.205H304.561C305.411 419.205 306.101 419.895 306.101 420.745C306.101 421.595 305.411 422.285 304.561 422.285Z" fill="black"/>
<path d="M247.221 410.115L248.461 407.255C248.461 407.255 279.901 395.285 295.471 419.925H287.561C287.561 419.925 275.051 401.925 247.221 410.115Z" fill="black"/>
<path d="M480.961 191.595C479.691 187.395 476.441 176.555 476.441 176.555L476.401 176.585C476.901 175.685 477.261 174.675 477.351 173.375C477.781 166.715 477.871 154.555 473.651 148.035C467.631 138.745 430.101 135.855 434.281 160.445C434.281 160.445 436.081 193.925 451.501 196.605C451.501 196.605 454.931 196.285 459.171 194.505C459.271 197.915 459.311 198.845 459.311 198.845C459.311 198.845 457.291 200.895 455.701 204.275C453.991 207.915 453.781 216.135 457.631 215.335C469.841 212.805 479.781 205.025 480.961 191.595Z" fill="#D97969"/>
<path d="M479.991 183.365L478.921 184.675C477.211 179.395 475.731 174.915 474.711 171.235C476.441 165.505 475.191 160.795 470.501 160.755C464.751 160.705 464.951 169.075 464.951 169.075C459.871 169.125 458.031 162.445 457.091 159.335C455.011 160.505 438.031 150.675 434.561 163.695C428.891 162.515 424.441 157.185 427.271 153.785C427.271 153.785 416.731 146.085 424.421 138.825C429.611 133.925 439.631 135.695 439.631 135.695C439.631 135.695 441.801 128.775 453.551 131.905C468.911 135.985 472.741 142.415 472.741 142.415C499.601 141.505 479.981 182.125 479.991 183.355V183.365Z" fill="black"/>
<g style="mix-blend-mode:multiply" opacity="0.8">
<path d="M459.171 194.515C459.171 194.515 468.201 191.635 470.591 180.145C470.591 180.145 473.111 193.245 459.311 198.855L459.171 194.515Z" fill="#D97969"/>
</g>
<path d="M471.731 163.145C466.481 163.675 466.121 171.895 470.631 173.085" stroke="black" stroke-width="0.4" stroke-linecap="round" stroke-linejoin="round"/>
<path d="M471.421 165.695C471.421 165.695 467.221 166.265 468.101 170.985" stroke="black" stroke-width="0.4" stroke-linecap="round" stroke-linejoin="round"/>
<path d="M446.841 172.615C447.611 176.745 450.981 179.585 454.361 178.955C457.741 178.325 459.861 174.465 459.091 170.335C458.321 166.205 454.951 163.365 451.571 163.995C448.191 164.625 446.071 168.485 446.841 172.615Z" stroke="black" stroke-width="0.4" stroke-linecap="round" stroke-linejoin="round"/>
<path d="M433.471 175.105C434.241 179.235 437.041 182.175 439.731 181.675C442.421 181.175 443.971 177.415 443.201 173.285C442.431 169.155 439.631 166.215 436.941 166.715C434.251 167.215 432.701 170.975 433.471 175.105Z" stroke="black" stroke-width="0.4" stroke-linecap="round" stroke-linejoin="round"/>
<path d="M447.451 171.955C447.451 171.955 444.611 171.365 442.431 172.895" stroke="black" stroke-width="0.4" stroke-linecap="round" stroke-linejoin="round"/>
<path d="M535.981 219.875C535.981 219.875 543.351 216.045 546.701 214.365" stroke="black" stroke-width="0.5" stroke-miterlimit="10" stroke-linecap="round"/>
<path d="M391.731 289.215C391.731 289.215 391.701 289.215 391.691 289.215H323.891C323.011 289.215 322.231 288.625 321.991 287.775L304.961 226.465C304.801 225.895 304.921 225.295 305.271 224.825C305.621 224.355 306.171 224.085 306.771 224.085H383.451C385.211 224.085 386.761 225.265 387.231 226.955L403.231 284.535C403.261 284.645 403.361 284.715 403.471 284.715H418.891C421.421 284.715 423.501 286.715 423.631 289.215H391.731Z" fill="white"/>
<path d="M383.451 224.335C385.091 224.335 386.551 225.445 386.991 227.025L402.991 284.605C403.051 284.825 403.251 284.975 403.471 284.975H418.891C421.201 284.975 423.111 286.725 423.361 288.975H391.751C391.751 288.975 391.711 288.975 391.691 288.975H323.891C323.121 288.975 322.441 288.455 322.231 287.715L305.201 226.405C305.061 225.915 305.161 225.395 305.471 224.985C305.781 224.575 306.251 224.345 306.771 224.345H383.451M383.451 223.835H306.771C305.361 223.835 304.341 225.175 304.721 226.535L321.751 287.845C322.021 288.805 322.891 289.465 323.891 289.465H391.691H423.891C423.891 286.705 421.651 284.465 418.891 284.465H403.471L387.471 226.885C386.971 225.075 385.321 223.825 383.451 223.825V223.835Z" fill="black"/>
<path d="M320.371 289.215C319.491 289.215 318.711 288.625 318.471 287.775L301.441 226.465C301.281 225.895 301.401 225.295 301.751 224.825C302.111 224.355 302.651 224.085 303.251 224.085H379.931C381.691 224.085 383.241 225.265 383.711 226.955L400.681 288.045C400.761 288.325 400.701 288.615 400.531 288.855C400.351 289.085 400.091 289.215 399.791 289.215H320.371Z" fill="#452A78"/>
<path d="M379.931 224.335C381.571 224.335 383.031 225.445 383.471 227.025L400.441 288.115C400.501 288.315 400.461 288.535 400.331 288.705C400.201 288.875 400.011 288.975 399.791 288.975H320.371C319.601 288.975 318.921 288.455 318.711 287.715L301.681 226.405C301.541 225.915 301.641 225.395 301.951 224.985C302.261 224.575 302.731 224.345 303.251 224.345H379.931M379.931 223.835H303.251C301.841 223.835 300.821 225.175 301.201 226.535L318.231 287.845C318.501 288.805 319.371 289.465 320.371 289.465H399.791C400.571 289.465 401.131 288.725 400.921 287.975L383.951 226.885C383.451 225.075 381.801 223.825 379.931 223.825V223.835Z" fill="black"/>
<path d="M447.361 274.945C446.101 271.875 443.501 270.555 440.961 270.115C440.491 270.035 440.181 269.585 440.251 269.115C440.401 268.055 440.471 267.415 440.471 267.415H408.111C408.111 267.415 410.321 289.445 419.981 289.455H428.781C430.451 289.455 431.951 288.665 433.161 287.525C433.821 286.905 434.751 286.675 435.641 286.795C436.331 286.885 436.981 286.935 437.591 286.935C441.721 286.935 444.171 285.145 445.431 283.805C447.711 281.365 448.501 277.725 447.361 274.935V274.945ZM443.611 282.105C441.931 283.905 439.411 284.665 436.321 284.365C436.021 284.335 435.851 284.005 435.991 283.735C437.461 280.995 438.491 277.675 439.191 274.755C439.541 273.295 441.141 272.505 442.491 273.155C443.551 273.665 444.491 274.515 445.061 275.895C445.721 277.505 445.431 280.155 443.611 282.105Z" fill="#5982FB"/>
<path d="M439.181 296.085H314.821C312.991 296.085 311.511 294.605 311.511 292.775C311.511 290.945 312.991 289.465 314.821 289.465H439.181C441.011 289.465 442.491 290.945 442.491 292.775C442.491 294.605 441.011 296.085 439.181 296.085Z" fill="black"/>
<path d="M339.461 422.285H334.581L332.381 296.085H341.661L339.461 422.285Z" fill="black"/>
<path d="M419.421 422.285H414.541L412.341 296.085H421.621L419.421 422.285Z" fill="black"/>
<path d="M336.851 312.525H416.981" stroke="black" stroke-width="0.75" stroke-miterlimit="10"/>
<path d="M421.991 394.135H332.021V398.345H421.991V394.135Z" fill="black"/>
<path d="M147.391 410.115L148.631 407.255C148.631 407.255 180.071 395.285 195.641 419.925H187.731C187.731 419.925 175.221 401.925 147.391 410.115Z" fill="black"/>
<path d="M204.731 422.285H131.541C130.691 422.285 130.001 421.595 130.001 420.745C130.001 419.895 130.691 419.205 131.541 419.205H204.731C205.581 419.205 206.271 419.895 206.271 420.745C206.271 421.595 205.581 422.285 204.731 422.285Z" fill="black"/>
<path d="M147.391 410.115L148.631 407.255C148.631 407.255 159.551 406.525 164.301 419.925H158.481C158.481 419.925 154.821 409.585 147.381 410.115H147.391Z" fill="black"/>
<path d="M150.321 420.305H147.391V410.115L150.321 409.465V420.305Z" fill="black"/>
<path d="M578.861 422.285H17.8407" stroke="black" stroke-linecap="round" stroke-linejoin="round"/>
<path d="M534.971 356.145C534.971 356.145 541.731 340.205 558.201 330.215C574.671 320.215 585.391 296.095 585.391 296.095C585.391 296.095 547.941 313.375 534.971 356.155V356.145Z" fill="black"/>
<path d="M530.001 370.955C530.001 370.955 541.661 315.275 599.191 293.665C599.191 293.665 581.311 288.385 565.351 289.655C549.401 290.925 551.341 313.515 551.341 313.515L545.721 294.315C545.721 294.315 533.491 302.585 522.591 317.425C511.691 332.265 530.001 370.955 530.001 370.955Z" fill="#B8C13E"/>
<path d="M599.181 293.675C541.651 315.275 529.991 370.965 529.991 370.965C529.991 370.965 525.121 394.705 525.881 422.295" stroke="black" stroke-linecap="round" stroke-linejoin="round"/>
<path d="M449.811 312.495C449.811 312.495 437.551 329.155 448.661 342.495C452.361 334.065 473.491 329.535 479.681 320.885C486.741 311.025 460.471 303.935 449.811 312.495Z" fill="black"/>
<path d="M519.121 347.405C519.121 354.585 511.061 367.405 511.061 367.405C511.061 367.405 488.571 358.245 483.981 351.525C481.751 348.265 480.011 344.775 478.401 341.315C484.571 339.455 493.571 339.455 493.571 339.455C486.141 336.415 478.731 336.355 476.161 336.485C471.081 325.435 458.371 305.975 449.811 312.485C449.811 312.485 455.681 304.125 474.901 308.345C474.901 308.345 494.681 302.095 507.131 318.335C513.351 326.455 519.121 337.155 519.121 347.405Z" fill="#B8C13E"/>
<path d="M519.121 422.285C519.121 422.285 519.901 347.535 478.731 312.525" stroke="black" stroke-linecap="round" stroke-linejoin="round"/>
<path d="M98.2511 76.7282C112.376 62.6029 112.376 39.7013 98.2511 25.5761C84.1258 11.4508 61.2243 11.4508 47.099 25.576C32.9737 39.7013 32.9737 62.6029 47.099 76.7282C61.2243 90.8534 84.1258 90.8534 98.2511 76.7282Z" fill="#F9B741"/>
<path d="M105.151 62.2949C93.1808 58.7549 92.7708 68.9849 92.7708 68.9849C92.7708 68.9849 80.7308 56.1649 71.0308 58.7149C59.9308 61.6249 68.3708 76.4749 68.3708 76.4749C68.3708 76.4749 43.5808 50.5649 31.4408 59.5449C26.8208 62.9649 25.7508 69.5449 30.8308 75.5749C15.7108 74.7349 22.6008 89.5249 22.6008 89.5249H146.401C146.401 89.5249 117.501 65.9549 105.131 62.2949H105.151Z" fill="#5982FB"/>
<path opacity="0.5" d="M395.811 20.0047C385.211 18.4747 383.171 27.7947 383.171 27.7947C383.171 27.7947 363.541 6.42474 346.021 9.27474C335.041 11.0647 332.361 24.5947 337.341 31.3647C315.251 26.0047 323.721 45.9447 323.721 45.9447H430.581C430.581 45.9447 407.091 21.6247 395.811 19.9947V20.0047Z" fill="#5982FB"/>
<path opacity="0.2" d="M34.6607 136.805C29.7707 136.095 28.8307 140.405 28.8307 140.405C28.8307 140.405 20.1007 128.615 9.24073 129.895C-4.88927 131.555 1.39073 148.785 1.39073 148.785H50.7007C50.7007 148.785 39.8607 137.565 34.6607 136.815V136.805Z" fill="#5982FB"/>
<path opacity="0.3" d="M563.071 113.585C557.891 112.835 556.901 117.395 556.901 117.395C556.901 117.395 547.311 106.955 538.761 108.355C533.401 109.225 532.091 115.835 534.521 119.145C523.731 116.525 527.871 126.265 527.871 126.265H580.071C580.071 126.265 568.601 114.385 563.091 113.595L563.071 113.585Z" fill="#5982FB"/>
<path d="M154.921 257.205C154.921 254.625 154.581 252.125 153.941 249.745L168.141 243.315L159.171 227.785L146.531 236.835C142.931 233.195 138.381 230.515 133.281 229.175L134.801 213.715H116.861L118.391 229.225C113.431 230.555 108.991 233.175 105.461 236.695L92.7807 227.615L83.8107 243.145L97.9707 249.565C97.3007 252.005 96.9407 254.565 96.9407 257.215C96.9407 259.865 97.2807 262.295 97.9207 264.685L83.7207 271.125L92.6907 286.655L105.331 277.605C108.931 281.245 113.481 283.925 118.581 285.265L117.061 300.735H135.001L133.471 285.215C138.431 283.885 142.871 281.275 146.401 277.755L159.071 286.835L168.041 271.305L153.891 264.895C154.561 262.455 154.921 259.895 154.921 257.245V257.205ZM125.941 273.925C116.701 273.925 109.221 266.435 109.221 257.205C109.221 247.975 116.701 240.495 125.941 240.495C135.181 240.495 142.651 247.975 142.651 257.205C142.651 266.435 135.171 273.925 125.941 273.925Z" fill="#5982FB"/>
<path d="M484.861 85.1447C484.861 83.9447 484.701 82.7847 484.411 81.6847L490.991 78.7047L486.831 71.5047L480.971 75.7047C479.301 74.0147 477.191 72.7747 474.831 72.1547L475.541 64.9847H467.221L467.931 72.1847C465.631 72.8047 463.571 74.0147 461.931 75.6447L456.051 71.4347L451.891 78.6347L458.461 81.6147C458.151 82.7447 457.981 83.9347 457.981 85.1647C457.981 86.3947 458.141 87.5247 458.431 88.6247L451.841 91.6147L456.001 98.8147L461.861 94.6147C463.531 96.3047 465.641 97.5447 468.001 98.1647L467.291 105.335H475.611L474.901 98.1347C477.201 97.5147 479.261 96.3047 480.901 94.6747L486.781 98.8847L490.941 91.6847L484.381 88.7047C484.691 87.5747 484.861 86.3847 484.861 85.1547V85.1447ZM471.421 92.9047C467.131 92.9047 463.671 89.4347 463.671 85.1547C463.671 80.8747 467.141 77.4047 471.421 77.4047C475.701 77.4047 479.171 80.8747 479.171 85.1547C479.171 89.4347 475.701 92.9047 471.421 92.9047Z" fill="#5982FB"/>
<path d="M578.351 371.155C578.351 369.935 578.191 368.745 577.891 367.615L584.621 364.565L580.371 357.205L574.381 361.495C572.681 359.775 570.521 358.495 568.101 357.865L568.821 350.535H560.321L561.041 357.885C558.691 358.515 556.591 359.755 554.911 361.425L548.901 357.125L544.651 364.485L551.361 367.525C551.041 368.685 550.871 369.895 550.871 371.145C550.871 372.395 551.031 373.555 551.331 374.685L544.601 377.735L548.851 385.095L554.841 380.805C556.541 382.525 558.701 383.805 561.121 384.435L560.401 391.765H568.901L568.181 384.415C570.531 383.785 572.631 382.545 574.311 380.875L580.321 385.175L584.571 377.815L577.861 374.775C578.181 373.615 578.351 372.405 578.351 371.145V371.155ZM564.611 379.075C560.231 379.075 556.691 375.525 556.691 371.155C556.691 366.785 560.231 363.235 564.611 363.235C568.991 363.235 572.531 366.775 572.531 371.155C572.531 375.535 568.991 379.075 564.611 379.075Z" fill="#5982FB"/>
<path d="M31.8907 371.805C31.0207 367.865 34.4507 364.425 38.3907 365.305C40.3807 365.745 41.9807 367.345 42.4207 369.335C43.2907 373.275 39.8607 376.715 35.9207 375.835C33.9307 375.395 32.3307 373.795 31.8907 371.805Z" stroke="#372EE2" stroke-width="0.5" stroke-miterlimit="10"/>
<path d="M611.431 328.485C613.038 328.485 614.341 327.182 614.341 325.575C614.341 323.968 613.038 322.665 611.431 322.665C609.824 322.665 608.521 323.968 608.521 325.575C608.521 327.182 609.824 328.485 611.431 328.485Z" stroke="#372EE2" stroke-width="0.5" stroke-miterlimit="10"/>
<path d="M264.801 23.5048C264.801 19.8948 267.731 16.9648 271.341 16.9648C274.951 16.9648 277.881 19.8948 277.881 23.5048C277.881 27.1148 274.951 30.0448 271.341 30.0448C267.731 30.0448 264.801 27.1148 264.801 23.5048Z" stroke="#372EE2" stroke-width="0.5" stroke-miterlimit="10"/>
<path d="M163.561 183.525C163.561 180.995 165.611 178.945 168.141 178.945C170.671 178.945 172.721 180.995 172.721 183.525C172.721 186.055 170.671 188.105 168.141 188.105C165.611 188.105 163.561 186.055 163.561 183.525Z" stroke="#372EE2" stroke-width="0.5" stroke-miterlimit="10"/>
<path d="M452.131 398.335C452.131 397.315 452.951 396.495 453.971 396.495C454.991 396.495 455.811 397.315 455.811 398.335C455.811 399.355 454.991 400.175 453.971 400.175C452.951 400.175 452.131 399.355 452.131 398.335Z" stroke="#372EE2" stroke-width="0.5" stroke-miterlimit="10"/>
<path d="M446.631 390.705C446.631 389.255 447.801 388.085 449.251 388.085C450.701 388.085 451.871 389.255 451.871 390.705C451.871 392.155 450.701 393.325 449.251 393.325C447.801 393.325 446.631 392.155 446.631 390.705Z" stroke="#372EE2" stroke-width="0.5" stroke-miterlimit="10"/>
<path d="M61.9607 204.205C61.9607 202.755 63.1307 201.585 64.5807 201.585C66.0307 201.585 67.2007 202.755 67.2007 204.205C67.2007 205.655 66.0307 206.825 64.5807 206.825C63.1307 206.825 61.9607 205.655 61.9607 204.205Z" stroke="#372EE2" stroke-width="0.5" stroke-miterlimit="10"/>
<path d="M565.871 170.645C565.871 167.315 568.571 164.615 571.901 164.615C575.231 164.615 577.931 167.315 577.931 170.645C577.931 173.975 575.231 176.675 571.901 176.675C568.571 176.675 565.871 173.975 565.871 170.645Z" stroke="#372EE2" stroke-width="0.5" stroke-miterlimit="10"/>
<path d="M593.151 335.655C593.151 332.325 595.851 329.625 599.181 329.625C602.511 329.625 605.211 332.325 605.211 335.655C605.211 338.985 602.511 341.685 599.181 341.685C595.851 341.685 593.151 338.985 593.151 335.655Z" stroke="#372EE2" stroke-width="0.5" stroke-miterlimit="10"/>
<path d="M491.051 422.285C491.051 422.285 502.561 400.765 522.451 399.365C539.731 398.145 536.271 419.885 530.241 417.875C525.191 416.195 530.621 402.745 547.091 403.895C563.561 405.045 582.521 421.325 592.091 419.985" stroke="black" stroke-width="0.5" stroke-linecap="round" stroke-linejoin="round"/>
<path d="M173.561 253.965C173.561 253.965 181.521 225.055 211.541 230.475C241.141 235.825 237.051 269.445 222.721 266.415C210.071 263.735 207.511 219.335 245.301 213.715C259.991 211.535 285.901 213.715 300.611 250.715" stroke="black" stroke-width="0.5" stroke-linecap="round" stroke-linejoin="round"/>
<path d="M357.501 169.175H319.901C318.338 169.175 317.071 170.442 317.071 172.005V196.435C317.071 197.998 318.338 199.265 319.901 199.265H357.501C359.064 199.265 360.331 197.998 360.331 196.435V172.005C360.331 170.442 359.064 169.175 357.501 169.175Z" fill="#E9A134"/>
<path style="mix-blend-mode:multiply" opacity="0.6" d="M344.371 183.495L357.421 173.125L338.701 184.215L319.971 173.125L333.021 183.495L319.971 195.975L334.841 184.935L338.701 188.005L342.551 184.935L357.421 195.975L344.371 183.495Z" fill="url(#paint0_linear_43_13)"/>
<path d="M356.691 169.175C356.691 171.915 354.471 174.135 351.731 174.135C348.991 174.135 346.771 171.915 346.771 169.175C346.771 166.435 348.991 164.215 351.731 164.215C354.471 164.215 356.691 166.435 356.691 169.175Z" fill="white"/>
<path d="M355.321 169.175C355.321 171.155 353.711 172.765 351.731 172.765C349.751 172.765 348.141 171.155 348.141 169.175C348.141 167.195 349.751 165.585 351.731 165.585C353.711 165.585 355.321 167.195 355.321 169.175Z" fill="#DB5017"/>
<path d="M362.241 435.705C362.241 435.705 356.851 403.675 382.311 388.085C382.311 388.085 375.901 401.405 376.911 416.155C376.911 416.155 387.571 386.765 406.721 383.415C406.721 383.415 388.431 403.135 388.531 427.455C388.531 427.455 402.131 410.805 423.571 415.005C423.571 415.005 403.851 418.265 397.241 435.705" fill="white"/>
<path d="M362.241 435.705C362.241 435.705 356.851 403.675 382.311 388.085C382.311 388.085 375.901 401.405 376.911 416.155C376.911 416.155 387.571 386.765 406.721 383.415C406.721 383.415 388.431 403.135 388.531 427.455C388.531 427.455 402.131 410.805 423.571 415.005C423.571 415.005 403.851 418.265 397.241 435.705" stroke="black" stroke-width="0.5" stroke-linecap="round" stroke-linejoin="round"/>
<path d="M449.031 435.705H147.671" stroke="black" stroke-linecap="round" stroke-linejoin="round"/>
<path d="M400.451 435.705C400.451 435.705 414.771 422.655 438.511 425.725Z" fill="white"/>
<path d="M400.451 435.705C400.451 435.705 414.771 422.655 438.511 425.725" stroke="black" stroke-width="0.5" stroke-linecap="round" stroke-linejoin="round"/>
<path d="M581.121 260.575C581.121 261.775 580.151 262.745 578.951 262.745C577.751 262.745 576.781 261.775 576.781 260.575C576.781 259.375 577.751 258.405 578.951 258.405C580.151 258.405 581.121 259.375 581.121 260.575Z" fill="black"/>
<path d="M591.081 260.575C591.081 261.775 590.111 262.745 588.911 262.745C587.711 262.745 586.741 261.775 586.741 260.575C586.741 259.375 587.711 258.405 588.911 258.405C590.111 258.405 591.081 259.375 591.081 260.575Z" fill="black"/>
<path d="M601.031 260.575C601.031 261.775 600.061 262.745 598.861 262.745C597.661 262.745 596.691 261.775 596.691 260.575C596.691 259.375 597.661 258.405 598.861 258.405C600.061 258.405 601.031 259.375 601.031 260.575Z" fill="black"/>
<path d="M610.991 260.575C610.991 261.775 610.021 262.745 608.821 262.745C607.621 262.745 606.651 261.775 606.651 260.575C606.651 259.375 607.621 258.405 608.821 258.405C610.021 258.405 610.991 259.375 610.991 260.575Z" fill="black"/>
<path d="M620.951 260.575C620.951 261.775 619.981 262.745 618.781 262.745C617.581 262.745 616.611 261.775 616.611 260.575C616.611 259.375 617.581 258.405 618.781 258.405C619.981 258.405 620.951 259.375 620.951 260.575Z" fill="black"/>
<path d="M342.651 136.355C344.832 136.355 346.601 134.586 346.601 132.405C346.601 130.223 344.832 128.455 342.651 128.455C340.469 128.455 338.701 130.223 338.701 132.405C338.701 134.586 340.469 136.355 342.651 136.355Z" fill="black"/>
<path d="M360.781 136.355C362.962 136.355 364.731 134.586 364.731 132.405C364.731 130.223 362.962 128.455 360.781 128.455C358.599 128.455 356.831 130.223 356.831 132.405C356.831 134.586 358.599 136.355 360.781 136.355Z" fill="black"/>
<path d="M378.911 136.355C381.092 136.355 382.861 134.586 382.861 132.405C382.861 130.223 381.092 128.455 378.911 128.455C376.729 128.455 374.961 130.223 374.961 132.405C374.961 134.586 376.729 136.355 378.911 136.355Z" fill="black"/>
<path d="M44.2507 238.235C44.2507 239.485 43.2407 240.495 41.9907 240.495C40.7407 240.495 39.7307 239.485 39.7307 238.235C39.7307 236.985 40.7407 235.975 41.9907 235.975C43.2407 235.975 44.2507 236.985 44.2507 238.235Z" fill="black"/>
<path d="M54.6007 238.235C54.6007 239.485 53.5907 240.495 52.3407 240.495C51.0907 240.495 50.0807 239.485 50.0807 238.235C50.0807 236.985 51.0907 235.975 52.3407 235.975C53.5907 235.975 54.6007 236.985 54.6007 238.235Z" fill="black"/>
<path d="M64.9507 238.235C64.9507 239.485 63.9407 240.495 62.6907 240.495C61.4407 240.495 60.4307 239.485 60.4307 238.235C60.4307 236.985 61.4407 235.975 62.6907 235.975C63.9407 235.975 64.9507 236.985 64.9507 238.235Z" fill="black"/>
<path d="M222.171 296.665C223.419 296.665 224.431 295.653 224.431 294.405C224.431 293.157 223.419 292.145 222.171 292.145C220.922 292.145 219.911 293.157 219.911 294.405C219.911 295.653 220.922 296.665 222.171 296.665Z" fill="black"/>
<path d="M232.521 296.665C233.769 296.665 234.781 295.653 234.781 294.405C234.781 293.157 233.769 292.145 232.521 292.145C231.272 292.145 230.261 293.157 230.261 294.405C230.261 295.653 231.272 296.665 232.521 296.665Z" fill="black"/>
<path d="M242.871 296.665C244.119 296.665 245.131 295.653 245.131 294.405C245.131 293.157 244.119 292.145 242.871 292.145C241.622 292.145 240.611 293.157 240.611 294.405C240.611 295.653 241.622 296.665 242.871 296.665Z" fill="black"/>
<defs>
<linearGradient id="paint0_linear_43_13" x1="338.701" y1="195.435" x2="338.701" y2="171.395" gradientUnits="userSpaceOnUse">
<stop stop-color="#E6832C"/>
<stop offset="1" stop-color="#E9A347"/>
</linearGradient>
</defs>
</svg>
