<svg width="750" height="500" viewBox="0 0 750 500" fill="none" xmlns="http://www.w3.org/2000/svg">
<g opacity="0.8">
<path d="M387.96 119.82L430.42 185.44L500.65 151.15" stroke="black" stroke-width="2" stroke-miterlimit="10"/>
<path d="M305.82 96.9901L430.42 185.44L582.8 173.99" stroke="black" stroke-width="2" stroke-miterlimit="10"/>
<path d="M353.82 445.54H362.39L453.49 117.86L445.54 115.65L353.82 445.54Z" fill="black"/>
<path d="M463.29 67.2101L620.21 200.55C620.21 200.55 587.93 210.26 550.43 182.97C550.43 182.97 515.29 190.06 483.41 164.34C483.41 164.34 462.45 167.33 437.4 160.36C412.34 153.39 395.93 140.02 395.93 140.02C355.35 145.6 328.91 121.39 328.91 121.39C282.71 125.41 260.07 100.43 260.07 100.43L463.29 67.2101Z" fill="white"/>
<path d="M463.29 67.2101L483.41 164.34C515.29 190.07 550.44 182.97 550.44 182.97L463.3 67.2101H463.29Z" fill="#DB5017"/>
<path d="M463.29 67.2101L395.93 140.02C355.34 145.6 328.9 121.39 328.9 121.39L463.29 67.2101Z" fill="#DB5017"/>
<path d="M463.29 67.2101L620.21 200.55C620.21 200.55 587.93 210.26 550.43 182.97C550.43 182.97 515.29 190.06 483.41 164.34C483.41 164.34 462.45 167.33 437.4 160.36C412.34 153.39 395.93 140.02 395.93 140.02C355.35 145.6 328.91 121.39 328.91 121.39C282.71 125.41 260.07 100.43 260.07 100.43L463.29 67.2101Z" stroke="black" stroke-width="0.5" stroke-linecap="round" stroke-linejoin="round"/>
<path d="M459.01 64.6801L464.02 56.1801C464.56 55.2701 465.64 54.8401 466.65 55.1201C467.67 55.4001 468.37 56.3301 468.36 57.3901L468.27 67.2601L487.84 85.0101C487.84 85.0101 482.11 86.4301 459.69 80.1901C437.26 73.9601 433.09 69.7901 433.09 69.7901L459.01 64.6801Z" fill="black"/>
<path d="M471.16 427.81C433.51 401.23 419.92 384.61 419.5 384.09C442.47 392.18 469.91 410.52 491.89 427.08C459.52 392.07 447.25 372.26 446.88 371.65C464.66 382.37 482.46 399.6 497.15 416.02C474.51 377.87 467.06 357.49 466.84 356.86C481.91 370.79 495.7 390.97 506.71 409.84C490.45 363.66 484.34 335.02 484.16 334.14C498.18 353.75 509.97 384.36 518.4 410.61C512.12 363.52 513.57 340.74 513.57 340.74C521.97 359.72 526.65 384.06 529.25 405.94C531.44 356.36 538.41 340.09 538.41 340.09C542.79 360.38 542.44 385.17 540.56 407.12C553.02 363.81 562.87 344.49 562.87 344.49C563.04 365.01 557.8 388.9 551.6 409.84C571.93 362.87 589.55 344.61 590.04 343.92C585.45 367.12 571.98 395.47 559.15 418.76C588.61 382.59 606.08 367.94 606.62 367.49C598.89 385.83 585.23 405.04 571.64 421.47C615.85 383.94 636.04 375.68 636.04 375.68C622.2 395.68 600.33 415.24 580.15 430.9C620.19 409.47 637.06 406.13 637.67 405.96C624.02 417.64 608.92 426.29 594.15 434.62C607.2 433.06 629.2 431.43 645.02 432.72C645.02 432.72 615.77 444.98 576.3 445.55H483.07C429.98 424.86 417.87 411.69 417.87 411.69C434.93 414 453.8 420.42 471.16 427.82V427.81Z" fill="#B8C13E"/>
<path d="M459.45 361.39L504.03 445.54H519.59L475 361.39H459.45Z" fill="white" stroke="black" stroke-width="0.5" stroke-miterlimit="10"/>
<path d="M459.45 361.39L466.27 374.27H481.82L475 361.39H459.45Z" fill="black"/>
<path d="M239.75 361.39L195.17 445.54H179.61L224.19 361.39H239.75Z" fill="white" stroke="black" stroke-width="0.5" stroke-miterlimit="10"/>
<path d="M217.37 374.27H232.93L239.75 361.39H224.19L217.37 374.27Z" fill="black"/>
<path d="M155.09 354.51H517.35V368.28H155.09V354.51Z" fill="white" stroke="black" stroke-width="0.5" stroke-miterlimit="10"/>
<path d="M215.03 408.08L138.58 263.48H123.02L199.47 408.08" fill="white"/>
<path d="M215.03 408.08L138.58 263.48H123.02L199.47 408.08" stroke="black" stroke-width="0.5" stroke-miterlimit="10" stroke-linecap="round"/>
<path d="M332.7 256.34C342.44 254.9 387.54 306.27 402.3 323.42L445.31 343.9C445.31 343.9 447.99 343.71 454.74 343.54C461.36 343.37 457.36 354.26 454.61 354.26H393.21C387.88 350.17 388.04 344.18 388.71 340.7C379.85 336.36 341.87 316.83 334.54 298.03L321.98 305.69L300.03 274.4C300.03 274.4 326.16 257.32 332.71 256.35L332.7 256.34Z" fill="#D97969"/>
<path d="M235.54 310.96L305.72 270.27C312.6 277.03 325.13 297.95 330.29 311.04L271.21 350.19L235.55 310.96H235.54Z" fill="#372EE2"/>
<path d="M301.51 326.9C301.51 326.9 322.21 333.62 327.24 338.39C337.33 347.96 403.95 413.17 403.95 413.17L434.96 433.37C434.96 433.37 445.35 431.41 447.74 432.61C449.93 433.71 450.42 439.41 448.08 442.47H381.47C381.47 442.47 373.39 433.85 377.05 424.38C347.75 405.97 319.28 394.75 311.6 373.73L286.26 366.49L301.52 326.9H301.51Z" fill="#D97969"/>
<path d="M192.48 311.64C192.48 311.64 182.29 336.78 197.19 354.52H206.41L293.3 375.28C293.3 375.28 308.42 357.41 310.07 329.36L249.86 307.91L192.49 311.64H192.48Z" fill="#372EE2"/>
<path d="M264.86 256.92L273.08 271.86L314.41 294.91L310.07 308.88L261.22 296.35C257.34 294.67 253.75 291.45 249.58 285.03C246.79 280.73 240.7 268.64 240.7 268.64L264.87 256.93L264.86 256.92Z" fill="#D97969"/>
<path d="M171.85 260.24L151.92 264.2L142.25 226.65C142.25 226.65 166.63 220.7 176.96 218.37C180.29 217.62 197.27 215.38 200.63 214.94C200.73 214.91 200.83 214.89 200.92 214.86C205.16 214.72 222.1 216.88 222.14 216.91C223.33 217.15 230.38 219.02 240.53 221.7C242.92 230.75 244.87 252.83 253.1 288.71C257.15 292.7 262.17 297.36 269.5 304.23C261.57 308.64 202.43 338.88 182.67 323.17C182.61 313.15 182.93 301.15 182.89 293.5C176.17 279.23 174.87 269.1 171.86 260.24H171.85Z" fill="#E9A134"/>
<path d="M253.39 229.85C255.87 234.67 268.49 258.22 268.49 258.22L247.68 266.1L240.53 221.69C240.53 221.69 250.24 223.72 253.39 229.85Z" fill="#E9A134"/>
<path d="M248.22 265.9L244.1 246.19L252.7 264.2L248.22 265.9Z" fill="black"/>
<path d="M116.95 234.97C121.43 231.83 142.46 227.47 142.46 227.47L146.56 243.36L178.06 259.63C183.28 262.25 186.65 268.4 190.18 274.26C190.32 274.49 196.58 284.88 197.11 286.48C197.64 288.08 197.08 298.33 196.83 300.56C196.51 303.46 192.15 302.34 191.83 299.42C191.83 299.4 191.83 299.38 191.83 299.36C191.66 300.46 191.52 301.26 191.45 301.51C190.75 304.1 186.62 303.61 186.07 300.51C185.97 299.94 185.87 298.86 185.78 297.58C185.65 298.54 185.51 299.25 185.39 299.49C184.56 301.09 180.72 300.71 180.49 296.56C180.4 295 180.39 293.99 180.4 291.29C180.25 292.37 180.14 293.18 180.09 293.46C179.82 294.93 176.19 294.7 175.78 292.32C175.59 291.19 175.13 284.45 174.8 280.78C171.38 278.39 170.23 275.74 169.84 274.2C157.11 271.91 122.15 265.41 115.21 261.78C106.69 257.33 106.94 241.99 116.96 234.97H116.95Z" fill="#D97969"/>
<path d="M191.86 298.42C191.86 298.42 192.2 288.7 191.86 286.93C191.52 285.16 189.85 280.9 189.85 280.9" stroke="black" stroke-width="0.5" stroke-miterlimit="10" stroke-linecap="round"/>
<path d="M185.83 296.99C185.83 296.99 186.12 288.17 185.94 286.92C185.71 285.32 184.75 280.98 184.75 280.98" stroke="black" stroke-width="0.5" stroke-miterlimit="10" stroke-linecap="round"/>
<path d="M180.46 290.68V286.79C180.46 285.24 179.95 281.05 179.95 281.05" stroke="black" stroke-width="0.5" stroke-miterlimit="10" stroke-linecap="round"/>
<path d="M377.61 445.54H450.8C451.65 445.54 452.34 444.85 452.34 444C452.34 443.15 451.65 442.46 450.8 442.46H377.61C376.76 442.46 376.07 443.15 376.07 444C376.07 444.85 376.76 445.54 377.61 445.54Z" fill="black"/>
<path d="M434.95 433.37L433.71 430.51C433.71 430.51 402.27 418.54 386.7 443.18H394.61C394.61 443.18 407.12 425.18 434.95 433.37Z" fill="black"/>
<path d="M201.21 214.85C202.48 210.65 205.73 199.81 205.73 199.81L205.77 199.84C205.27 198.94 204.91 197.93 204.82 196.63C204.39 189.97 204.3 177.81 208.52 171.29C214.54 162 252.07 159.11 247.89 183.7C247.89 183.7 246.09 217.18 230.67 219.86C230.67 219.86 227.24 219.54 223 217.76C222.9 221.17 222.86 222.1 222.86 222.1C222.86 222.1 224.88 224.15 226.47 227.53C228.18 231.17 228.39 239.39 224.54 238.59C212.33 236.06 202.39 228.28 201.21 214.85Z" fill="#D97969"/>
<path d="M202.18 206.62L203.25 207.93C204.96 202.65 206.44 198.17 207.46 194.49C205.73 188.76 206.98 184.05 211.67 184.01C217.42 183.96 217.22 192.33 217.22 192.33C222.3 192.38 224.14 185.7 225.08 182.59C227.16 183.76 244.14 173.93 247.61 186.95C253.28 185.77 257.73 180.44 254.9 177.04C254.9 177.04 265.44 169.34 257.75 162.08C252.56 157.18 242.54 158.95 242.54 158.95C242.54 158.95 240.37 152.03 228.62 155.16C213.26 159.24 209.43 165.67 209.43 165.67C182.57 164.76 202.19 205.38 202.18 206.61V206.62Z" fill="black"/>
<g style="mix-blend-mode:multiply" opacity="0.8">
<path d="M223 217.77C223 217.77 213.97 214.89 211.58 203.4C211.58 203.4 209.06 216.5 222.86 222.11L223 217.77Z" fill="#D97969"/>
</g>
<path d="M210.44 186.4C215.69 186.93 216.05 195.15 211.54 196.34" stroke="black" stroke-width="0.4" stroke-linecap="round" stroke-linejoin="round"/>
<path d="M210.75 188.95C210.75 188.95 214.95 189.52 214.07 194.24" stroke="black" stroke-width="0.4" stroke-linecap="round" stroke-linejoin="round"/>
<path d="M235.33 195.87C234.56 200 231.19 202.84 227.81 202.21C224.43 201.58 222.31 197.72 223.08 193.59C223.85 189.46 227.22 186.62 230.6 187.25C233.98 187.88 236.1 191.74 235.33 195.87Z" stroke="black" stroke-width="0.4" stroke-linecap="round" stroke-linejoin="round"/>
<path d="M248.7 198.36C247.93 202.49 245.13 205.43 242.44 204.93C239.75 204.43 238.2 200.67 238.97 196.54C239.74 192.41 242.54 189.47 245.23 189.97C247.92 190.47 249.47 194.23 248.7 198.36Z" stroke="black" stroke-width="0.4" stroke-linecap="round" stroke-linejoin="round"/>
<path d="M234.72 195.21C234.72 195.21 237.56 194.62 239.74 196.15" stroke="black" stroke-width="0.4" stroke-linecap="round" stroke-linejoin="round"/>
<path d="M146.19 243.13C146.19 243.13 138.82 239.3 135.47 237.62" stroke="black" stroke-width="0.5" stroke-miterlimit="10" stroke-linecap="round"/>
<path d="M290.44 312.47C290.44 312.47 290.47 312.47 290.48 312.47H358.28C359.16 312.47 359.94 311.88 360.18 311.03L377.21 249.72C377.37 249.15 377.25 248.55 376.9 248.08C376.55 247.61 376 247.34 375.4 247.34H298.72C296.96 247.34 295.41 248.52 294.94 250.21L278.94 307.79C278.91 307.9 278.81 307.97 278.7 307.97H263.28C260.75 307.97 258.67 309.97 258.54 312.47H290.44Z" fill="white"/>
<path d="M298.72 247.59C297.08 247.59 295.62 248.7 295.18 250.28L279.18 307.86C279.12 308.08 278.92 308.23 278.7 308.23H263.28C260.97 308.23 259.06 309.98 258.81 312.23H290.42C290.42 312.23 290.46 312.23 290.48 312.23H358.28C359.05 312.23 359.73 311.71 359.94 310.97L376.97 249.66C377.11 249.17 377.01 248.65 376.7 248.24C376.39 247.83 375.92 247.6 375.4 247.6H298.72M298.72 247.09H375.4C376.81 247.09 377.83 248.43 377.45 249.79L360.42 311.1C360.15 312.06 359.28 312.72 358.28 312.72H290.48H258.28C258.28 309.96 260.52 307.72 263.28 307.72H278.7L294.7 250.14C295.2 248.33 296.85 247.08 298.72 247.08V247.09Z" fill="black"/>
<path d="M361.8 312.47C362.68 312.47 363.46 311.88 363.7 311.03L380.73 249.72C380.89 249.15 380.77 248.55 380.42 248.08C380.06 247.61 379.52 247.34 378.92 247.34H302.24C300.48 247.34 298.93 248.52 298.46 250.21L281.49 311.3C281.41 311.58 281.47 311.87 281.64 312.11C281.82 312.34 282.08 312.47 282.38 312.47H361.8Z" fill="#452A78"/>
<path d="M302.24 247.59C300.6 247.59 299.14 248.7 298.7 250.28L281.73 311.37C281.67 311.57 281.71 311.79 281.84 311.96C281.97 312.13 282.16 312.23 282.38 312.23H361.8C362.57 312.23 363.25 311.71 363.46 310.97L380.49 249.66C380.63 249.17 380.53 248.65 380.22 248.24C379.91 247.83 379.44 247.6 378.92 247.6H302.24M302.24 247.09H378.92C380.33 247.09 381.35 248.43 380.97 249.79L363.94 311.1C363.67 312.06 362.8 312.72 361.8 312.72H282.38C281.6 312.72 281.04 311.98 281.25 311.23L298.22 250.14C298.72 248.33 300.37 247.08 302.24 247.08V247.09Z" fill="black"/>
<path d="M234.81 298.2C236.07 295.13 238.67 293.81 241.21 293.37C241.68 293.29 241.99 292.84 241.92 292.37C241.77 291.31 241.7 290.67 241.7 290.67H274.06C274.06 290.67 271.85 312.7 262.19 312.71H253.39C251.72 312.71 250.22 311.92 249.01 310.78C248.35 310.16 247.42 309.93 246.53 310.05C245.84 310.14 245.19 310.19 244.58 310.19C240.45 310.19 238 308.4 236.74 307.06C234.46 304.62 233.67 300.98 234.81 298.19V298.2ZM238.56 305.36C240.24 307.16 242.76 307.92 245.85 307.62C246.15 307.59 246.32 307.26 246.18 306.99C244.71 304.25 243.68 300.93 242.98 298.01C242.63 296.55 241.03 295.76 239.68 296.41C238.62 296.92 237.68 297.77 237.11 299.15C236.45 300.76 236.74 303.41 238.56 305.36Z" fill="#5982FB"/>
<path d="M242.99 319.34H367.35C369.18 319.34 370.66 317.86 370.66 316.03C370.66 314.2 369.18 312.72 367.35 312.72H242.99C241.16 312.72 239.68 314.2 239.68 316.03C239.68 317.86 241.16 319.34 242.99 319.34Z" fill="black"/>
<path d="M342.71 445.54H347.59L349.79 319.34H340.51L342.71 445.54Z" fill="black"/>
<path d="M262.75 445.54H267.63L269.83 319.34H260.55L262.75 445.54Z" fill="black"/>
<path d="M345.32 335.78H265.19" stroke="black" stroke-width="0.75" stroke-miterlimit="10"/>
<path d="M260.18 417.39H350.15V421.6H260.18V417.39Z" fill="black"/>
<path d="M534.78 433.37L533.54 430.51C533.54 430.51 502.1 418.54 486.53 443.18H494.44C494.44 443.18 506.95 425.18 534.78 433.37Z" fill="black"/>
<path d="M477.44 445.54H550.63C551.48 445.54 552.17 444.85 552.17 444C552.17 443.15 551.48 442.46 550.63 442.46H477.44C476.59 442.46 475.9 443.15 475.9 444C475.9 444.85 476.59 445.54 477.44 445.54Z" fill="black"/>
<path d="M534.78 433.37L533.54 430.51C533.54 430.51 522.62 429.78 517.87 443.18H523.69C523.69 443.18 527.35 432.84 534.79 433.37H534.78Z" fill="black"/>
<path d="M531.85 443.56H534.78V433.37L531.85 432.72V443.56Z" fill="black"/>
<path d="M103.31 445.54H664.33" stroke="black" stroke-linecap="round" stroke-linejoin="round"/>
<path d="M147.2 379.4C147.2 379.4 140.44 363.46 123.97 353.47C107.5 343.47 96.78 319.35 96.78 319.35C96.78 319.35 134.23 336.63 147.2 379.41V379.4Z" fill="black"/>
<path d="M152.17 394.21C152.17 394.21 140.51 338.53 82.98 316.92C82.98 316.92 100.86 311.64 116.82 312.91C132.77 314.18 130.83 336.77 130.83 336.77L136.45 317.57C136.45 317.57 148.68 325.84 159.58 340.68C170.48 355.52 152.17 394.21 152.17 394.21Z" fill="#B8C13E"/>
<path d="M82.99 316.93C140.52 338.53 152.18 394.22 152.18 394.22C152.18 394.22 157.05 417.96 156.29 445.55" stroke="black" stroke-linecap="round" stroke-linejoin="round"/>
<path d="M232.36 335.75C232.36 335.75 244.62 352.41 233.51 365.75C229.81 357.32 208.68 352.79 202.49 344.14C195.43 334.28 221.7 327.19 232.36 335.75Z" fill="black"/>
<path d="M163.05 370.66C163.05 377.84 171.11 390.66 171.11 390.66C171.11 390.66 193.6 381.5 198.19 374.78C200.42 371.52 202.16 368.03 203.77 364.57C197.6 362.71 188.6 362.71 188.6 362.71C196.03 359.67 203.44 359.61 206.01 359.74C211.09 348.69 223.8 329.23 232.36 335.74C232.36 335.74 226.49 327.38 207.27 331.6C207.27 331.6 187.49 325.35 175.04 341.59C168.82 349.71 163.05 360.41 163.05 370.66Z" fill="#B8C13E"/>
<path d="M163.05 445.54C163.05 445.54 162.27 370.79 203.44 335.78" stroke="black" stroke-linecap="round" stroke-linejoin="round"/>
<path d="M583.92 99.9834C569.794 85.8581 569.794 62.9566 583.92 48.8313C598.045 34.706 620.946 34.706 635.072 48.8313C649.197 62.9566 649.197 85.8581 635.072 99.9834C620.946 114.109 598.045 114.109 583.92 99.9834Z" fill="#F9B741"/>
<path d="M577.02 85.55C588.99 82.01 589.4 92.24 589.4 92.24C589.4 92.24 601.44 79.42 611.14 81.97C622.24 84.88 613.8 99.73 613.8 99.73C613.8 99.73 638.59 73.82 650.73 82.8C655.35 86.22 656.42 92.8 651.34 98.83C666.46 97.99 659.57 112.78 659.57 112.78H535.77C535.77 112.78 564.67 89.21 577.04 85.55H577.02Z" fill="#5982FB"/>
<path opacity="0.5" d="M286.36 43.26C296.96 41.73 299 51.05 299 51.05C299 51.05 318.63 29.68 336.15 32.53C347.13 34.32 349.81 47.85 344.83 54.62C366.92 49.26 358.45 69.2 358.45 69.2H251.59C251.59 69.2 275.08 44.88 286.36 43.25V43.26Z" fill="#5982FB"/>
<path opacity="0.2" d="M647.51 160.06C652.4 159.35 653.34 163.66 653.34 163.66C653.34 163.66 662.07 151.87 672.93 153.15C687.06 154.81 680.78 172.04 680.78 172.04H631.47C631.47 172.04 642.31 160.82 647.51 160.07V160.06Z" fill="#5982FB"/>
<path opacity="0.3" d="M119.1 136.84C124.28 136.09 125.27 140.65 125.27 140.65C125.27 140.65 134.86 130.21 143.41 131.61C148.77 132.48 150.08 139.09 147.65 142.4C158.44 139.78 154.3 149.52 154.3 149.52H102.1C102.1 149.52 113.57 137.64 119.08 136.85L119.1 136.84Z" fill="#5982FB"/>
<path d="M527.25 280.46C527.25 277.88 527.59 275.38 528.23 273L514.03 266.57L523 251.04L535.64 260.09C539.24 256.45 543.79 253.77 548.89 252.43L547.37 236.97H565.31L563.78 252.48C568.74 253.81 573.18 256.43 576.71 259.95L589.39 250.87L598.36 266.4L584.2 272.82C584.87 275.26 585.23 277.82 585.23 280.47C585.23 283.12 584.89 285.55 584.25 287.94L598.45 294.38L589.48 309.91L576.84 300.86C573.24 304.5 568.69 307.18 563.59 308.52L565.11 323.99H547.17L548.7 308.47C543.74 307.14 539.3 304.53 535.77 301.01L523.1 310.09L514.13 294.56L528.28 288.15C527.61 285.71 527.25 283.15 527.25 280.5V280.46ZM556.23 297.18C565.47 297.18 572.95 289.69 572.95 280.46C572.95 271.23 565.47 263.75 556.23 263.75C546.99 263.75 539.52 271.23 539.52 280.46C539.52 289.69 547 297.18 556.23 297.18Z" fill="#5982FB"/>
<path d="M197.31 108.4C197.31 107.2 197.47 106.04 197.76 104.94L191.18 101.96L195.34 94.76L201.2 98.96C202.87 97.27 204.98 96.03 207.34 95.41L206.63 88.24H214.95L214.24 95.44C216.54 96.06 218.6 97.27 220.24 98.9L226.12 94.69L230.28 101.89L223.71 104.87C224.02 106 224.19 107.19 224.19 108.42C224.19 109.65 224.03 110.78 223.74 111.88L230.33 114.87L226.17 122.07L220.31 117.87C218.64 119.56 216.53 120.8 214.17 121.42L214.88 128.59H206.56L207.27 121.39C204.97 120.77 202.91 119.56 201.27 117.93L195.39 122.14L191.23 114.94L197.79 111.96C197.48 110.83 197.31 109.64 197.31 108.41V108.4ZM210.75 116.16C215.04 116.16 218.5 112.69 218.5 108.41C218.5 104.13 215.03 100.66 210.75 100.66C206.47 100.66 203 104.13 203 108.41C203 112.69 206.47 116.16 210.75 116.16Z" fill="#5982FB"/>
<path d="M103.82 394.41C103.82 393.19 103.98 392 104.28 390.87L97.55 387.82L101.8 380.46L107.79 384.75C109.49 383.03 111.65 381.75 114.07 381.12L113.35 373.79H121.85L121.13 381.14C123.48 381.77 125.58 383.01 127.26 384.68L133.27 380.38L137.52 387.74L130.81 390.78C131.13 391.94 131.3 393.15 131.3 394.4C131.3 395.65 131.14 396.81 130.84 397.94L137.57 400.99L133.32 408.35L127.33 404.06C125.63 405.78 123.47 407.06 121.05 407.69L121.77 415.02H113.27L113.99 407.67C111.64 407.04 109.54 405.8 107.86 404.13L101.85 408.43L97.5999 401.07L104.31 398.03C103.99 396.87 103.82 395.66 103.82 394.4V394.41ZM117.56 402.33C121.94 402.33 125.48 398.78 125.48 394.41C125.48 390.04 121.94 386.49 117.56 386.49C113.18 386.49 109.64 390.03 109.64 394.41C109.64 398.79 113.18 402.33 117.56 402.33Z" fill="#5982FB"/>
<path d="M650.28 395.06C651.15 391.12 647.72 387.68 643.78 388.56C641.79 389 640.19 390.6 639.75 392.59C638.88 396.53 642.31 399.97 646.25 399.09C648.24 398.65 649.84 397.05 650.28 395.06Z" stroke="#372EE2" stroke-width="0.5" stroke-miterlimit="10"/>
<path d="M70.74 351.74C69.1328 351.74 67.83 350.437 67.83 348.83C67.83 347.223 69.1328 345.92 70.74 345.92C72.3471 345.92 73.65 347.223 73.65 348.83C73.65 350.437 72.3471 351.74 70.74 351.74Z" stroke="#372EE2" stroke-width="0.5" stroke-miterlimit="10"/>
<path d="M417.37 46.7601C417.37 43.1501 414.44 40.2201 410.83 40.2201C407.22 40.2201 404.29 43.1501 404.29 46.7601C404.29 50.3701 407.22 53.3001 410.83 53.3001C414.44 53.3001 417.37 50.3701 417.37 46.7601Z" stroke="#372EE2" stroke-width="0.5" stroke-miterlimit="10"/>
<path d="M518.61 206.78C518.61 204.25 516.56 202.2 514.03 202.2C511.5 202.2 509.45 204.25 509.45 206.78C509.45 209.31 511.5 211.36 514.03 211.36C516.56 211.36 518.61 209.31 518.61 206.78Z" stroke="#372EE2" stroke-width="0.5" stroke-miterlimit="10"/>
<path d="M230.04 421.59C230.04 420.57 229.22 419.75 228.2 419.75C227.18 419.75 226.36 420.57 226.36 421.59C226.36 422.61 227.18 423.43 228.2 423.43C229.22 423.43 230.04 422.61 230.04 421.59Z" stroke="#372EE2" stroke-width="0.5" stroke-miterlimit="10"/>
<path d="M235.54 413.96C235.54 412.51 234.37 411.34 232.92 411.34C231.47 411.34 230.3 412.51 230.3 413.96C230.3 415.41 231.47 416.58 232.92 416.58C234.37 416.58 235.54 415.41 235.54 413.96Z" stroke="#372EE2" stroke-width="0.5" stroke-miterlimit="10"/>
<path d="M620.21 227.46C620.21 226.01 619.04 224.84 617.59 224.84C616.14 224.84 614.97 226.01 614.97 227.46C614.97 228.91 616.14 230.08 617.59 230.08C619.04 230.08 620.21 228.91 620.21 227.46Z" stroke="#372EE2" stroke-width="0.5" stroke-miterlimit="10"/>
<path d="M116.3 193.9C116.3 190.57 113.6 187.87 110.27 187.87C106.94 187.87 104.24 190.57 104.24 193.9C104.24 197.23 106.94 199.93 110.27 199.93C113.6 199.93 116.3 197.23 116.3 193.9Z" stroke="#372EE2" stroke-width="0.5" stroke-miterlimit="10"/>
<path d="M89.02 358.91C89.02 355.58 86.32 352.88 82.99 352.88C79.66 352.88 76.96 355.58 76.96 358.91C76.96 362.24 79.66 364.94 82.99 364.94C86.32 364.94 89.02 362.24 89.02 358.91Z" stroke="#372EE2" stroke-width="0.5" stroke-miterlimit="10"/>
<path d="M191.12 445.54C191.12 445.54 179.61 424.02 159.72 422.62C142.44 421.4 145.9 443.14 151.93 441.13C156.98 439.45 151.55 426 135.08 427.15C118.61 428.3 99.65 444.58 90.08 443.24" stroke="black" stroke-width="0.5" stroke-linecap="round" stroke-linejoin="round"/>
<path d="M508.61 277.22C508.61 277.22 500.65 248.31 470.63 253.73C441.03 259.08 445.12 292.7 459.45 289.67C472.1 286.99 474.66 242.59 436.87 236.97C422.18 234.79 396.27 236.97 381.56 273.97" stroke="black" stroke-width="0.5" stroke-linecap="round" stroke-linejoin="round"/>
<path d="M324.67 192.43H362.27C363.833 192.43 365.1 193.697 365.1 195.26V219.69C365.1 221.253 363.833 222.52 362.27 222.52H324.67C323.107 222.52 321.84 221.253 321.84 219.69V195.26C321.84 193.697 323.107 192.43 324.67 192.43Z" fill="#E9A134"/>
<path style="mix-blend-mode:multiply" opacity="0.6" d="M337.8 206.75L324.75 196.38L343.47 207.47L362.2 196.38L349.15 206.75L362.2 219.23L347.33 208.19L343.47 211.26L339.62 208.19L324.75 219.23L337.8 206.75Z" fill="url(#paint0_linear_13_996)"/>
<path d="M325.48 192.43C325.48 195.17 327.7 197.39 330.44 197.39C333.18 197.39 335.4 195.17 335.4 192.43C335.4 189.69 333.18 187.47 330.44 187.47C327.7 187.47 325.48 189.69 325.48 192.43Z" fill="white"/>
<path d="M326.85 192.43C326.85 194.41 328.46 196.02 330.44 196.02C332.42 196.02 334.03 194.41 334.03 192.43C334.03 190.45 332.42 188.84 330.44 188.84C328.46 188.84 326.85 190.45 326.85 192.43Z" fill="#DB5017"/>
<path d="M319.93 458.96C319.93 458.96 325.32 426.93 299.86 411.34C299.86 411.34 306.27 424.66 305.26 439.41C305.26 439.41 294.6 410.02 275.45 406.67C275.45 406.67 293.74 426.39 293.64 450.71C293.64 450.71 280.04 434.06 258.6 438.26C258.6 438.26 278.32 441.52 284.93 458.96" fill="white"/>
<path d="M319.93 458.96C319.93 458.96 325.32 426.93 299.86 411.34C299.86 411.34 306.27 424.66 305.26 439.41C305.26 439.41 294.6 410.02 275.45 406.67C275.45 406.67 293.74 426.39 293.64 450.71C293.64 450.71 280.04 434.06 258.6 438.26C258.6 438.26 278.32 441.52 284.93 458.96" stroke="black" stroke-width="0.5" stroke-linecap="round" stroke-linejoin="round"/>
<path d="M233.14 458.96H534.5" stroke="black" stroke-linecap="round" stroke-linejoin="round"/>
<path d="M281.72 458.96C281.72 458.96 267.4 445.91 243.66 448.98L281.72 458.96Z" fill="white"/>
<path d="M281.72 458.96C281.72 458.96 267.4 445.91 243.66 448.98" stroke="black" stroke-width="0.5" stroke-linecap="round" stroke-linejoin="round"/>
<path d="M101.05 283.83C101.05 285.03 102.02 286 103.22 286C104.42 286 105.39 285.03 105.39 283.83C105.39 282.63 104.42 281.66 103.22 281.66C102.02 281.66 101.05 282.63 101.05 283.83Z" fill="black"/>
<path d="M91.09 283.83C91.09 285.03 92.06 286 93.26 286C94.46 286 95.43 285.03 95.43 283.83C95.43 282.63 94.46 281.66 93.26 281.66C92.06 281.66 91.09 282.63 91.09 283.83Z" fill="black"/>
<path d="M81.14 283.83C81.14 285.03 82.11 286 83.31 286C84.51 286 85.48 285.03 85.48 283.83C85.48 282.63 84.51 281.66 83.31 281.66C82.11 281.66 81.14 282.63 81.14 283.83Z" fill="black"/>
<path d="M71.18 283.83C71.18 285.03 72.15 286 73.35 286C74.55 286 75.52 285.03 75.52 283.83C75.52 282.63 74.55 281.66 73.35 281.66C72.15 281.66 71.18 282.63 71.18 283.83Z" fill="black"/>
<path d="M61.22 283.83C61.22 285.03 62.19 286 63.39 286C64.59 286 65.56 285.03 65.56 283.83C65.56 282.63 64.59 281.66 63.39 281.66C62.19 281.66 61.22 282.63 61.22 283.83Z" fill="black"/>
<path d="M339.52 159.61C337.338 159.61 335.57 157.842 335.57 155.66C335.57 153.479 337.338 151.71 339.52 151.71C341.702 151.71 343.47 153.479 343.47 155.66C343.47 157.842 341.702 159.61 339.52 159.61Z" fill="black"/>
<path d="M321.39 159.61C319.208 159.61 317.44 157.842 317.44 155.66C317.44 153.479 319.208 151.71 321.39 151.71C323.572 151.71 325.34 153.479 325.34 155.66C325.34 157.842 323.572 159.61 321.39 159.61Z" fill="black"/>
<path d="M303.26 159.61C301.078 159.61 299.31 157.842 299.31 155.66C299.31 153.479 301.078 151.71 303.26 151.71C305.442 151.71 307.21 153.479 307.21 155.66C307.21 157.842 305.442 159.61 303.26 159.61Z" fill="black"/>
<path d="M637.92 261.49C637.92 262.74 638.93 263.75 640.18 263.75C641.43 263.75 642.44 262.74 642.44 261.49C642.44 260.24 641.43 259.23 640.18 259.23C638.93 259.23 637.92 260.24 637.92 261.49Z" fill="black"/>
<path d="M627.57 261.49C627.57 262.74 628.58 263.75 629.83 263.75C631.08 263.75 632.09 262.74 632.09 261.49C632.09 260.24 631.08 259.23 629.83 259.23C628.58 259.23 627.57 260.24 627.57 261.49Z" fill="black"/>
<path d="M617.22 261.49C617.22 262.74 618.23 263.75 619.48 263.75C620.73 263.75 621.74 262.74 621.74 261.49C621.74 260.24 620.73 259.23 619.48 259.23C618.23 259.23 617.22 260.24 617.22 261.49Z" fill="black"/>
<path d="M460 319.92C458.752 319.92 457.74 318.908 457.74 317.66C457.74 316.412 458.752 315.4 460 315.4C461.248 315.4 462.26 316.412 462.26 317.66C462.26 318.908 461.248 319.92 460 319.92Z" fill="black"/>
<path d="M449.65 319.92C448.402 319.92 447.39 318.908 447.39 317.66C447.39 316.412 448.402 315.4 449.65 315.4C450.898 315.4 451.91 316.412 451.91 317.66C451.91 318.908 450.898 319.92 449.65 319.92Z" fill="black"/>
<path d="M439.3 319.92C438.052 319.92 437.04 318.908 437.04 317.66C437.04 316.412 438.052 315.4 439.3 315.4C440.548 315.4 441.56 316.412 441.56 317.66C441.56 318.908 440.548 319.92 439.3 319.92Z" fill="black"/>
</g>
<defs>
<linearGradient id="paint0_linear_13_996" x1="343.47" y1="218.69" x2="343.47" y2="194.65" gradientUnits="userSpaceOnUse">
<stop stop-color="#E6832C"/>
<stop offset="1" stop-color="#E9A347"/>
</linearGradient>
</defs>
</svg>
