<svg width="120" height="28" viewBox="0 0 120 28" fill="none" xmlns="http://www.w3.org/2000/svg">
<path d="M34.8701 8.06994H37.8701V20.1999H34.8701V8.06994ZM39.0601 15.6199C39.0601 12.6199 40.9001 10.8299 43.7401 10.8299C46.5801 10.8299 48.4201 12.6199 48.4201 15.6199C48.4201 18.6199 46.6201 20.4199 43.7401 20.4199C40.8601 20.4199 39.0601 18.6699 39.0601 15.6199ZM45.4101 15.6199C45.4101 13.9699 44.7601 12.9999 43.7401 12.9999C42.7201 12.9999 42.0801 13.9999 42.0801 15.6199C42.0801 17.2399 42.7101 18.2199 43.7401 18.2199C44.7701 18.2199 45.4101 17.2999 45.4101 15.6299V15.6199ZM49.5501 20.7899H52.4301C52.5672 21.0944 52.7989 21.3465 53.0908 21.5087C53.3827 21.6709 53.7192 21.7344 54.0501 21.6899C55.1901 21.6899 55.7901 21.0699 55.7901 20.1699V18.4899H55.7301C55.4911 19.0048 55.1032 19.4363 54.6166 19.7286C54.13 20.0209 53.567 20.1607 53.0001 20.1299C50.8101 20.1299 49.3601 18.4599 49.3601 15.5899C49.3601 12.7199 50.7401 10.9099 53.0401 10.9099C53.6247 10.887 54.2024 11.0433 54.6956 11.3579C55.1889 11.6724 55.5743 12.1302 55.8001 12.6699V10.9999H58.8001V20.0999C58.8001 22.2899 56.8701 23.6499 54.0201 23.6499C51.3701 23.6499 49.7201 22.4599 49.5501 20.7999V20.7899ZM55.8001 15.6099C55.8001 14.1499 55.1301 13.2299 54.0701 13.2299C53.0101 13.2299 52.3601 14.1399 52.3601 15.6099C52.3601 17.0799 53.0001 17.9099 54.0701 17.9099C55.1401 17.9099 55.8001 17.0999 55.8001 15.6199V15.6099ZM59.9301 15.6099C59.9301 12.6099 61.7701 10.8199 64.6101 10.8199C67.4501 10.8199 69.3001 12.6099 69.3001 15.6099C69.3001 18.6099 67.5001 20.4099 64.6101 20.4099C61.7201 20.4099 59.9301 18.6699 59.9301 15.6199V15.6099ZM66.2801 15.6099C66.2801 13.9599 65.6301 12.9899 64.6101 12.9899C63.5901 12.9899 63.0001 13.9999 63.0001 15.6299C63.0001 17.2599 63.6301 18.2299 64.6501 18.2299C65.6701 18.2299 66.2801 17.2999 66.2801 15.6299V15.6099ZM70.4401 8.81994C70.4323 8.51705 70.5145 8.21864 70.6764 7.96254C70.8384 7.70645 71.0727 7.5042 71.3497 7.38144C71.6267 7.25868 71.934 7.22094 72.2324 7.27299C72.5309 7.32505 72.8073 7.46455 73.0264 7.67383C73.2455 7.88311 73.3975 8.15274 73.4632 8.44853C73.5289 8.74431 73.5053 9.05295 73.3954 9.3353C73.2854 9.61766 73.0942 9.86101 72.8458 10.0345C72.5974 10.208 72.3031 10.3039 72.0001 10.3099C71.7993 10.3237 71.5978 10.2959 71.4083 10.2281C71.2187 10.1603 71.0453 10.054 70.8988 9.91594C70.7523 9.7779 70.6359 9.61105 70.557 9.42588C70.4781 9.24071 70.4383 9.04122 70.4401 8.83994V8.81994ZM70.4401 11.0199H73.4401V20.1999H70.4401V11.0199ZM84.3301 15.6099C84.3301 18.6099 83.0001 20.3199 80.7201 20.3199C80.1355 20.3575 79.5534 20.2146 79.0526 19.9105C78.5519 19.6065 78.1565 19.156 77.9201 18.6199H77.8601V23.1399H74.8601V10.9999H77.8601V12.6399H77.9201C78.1455 12.0951 78.5333 11.6328 79.0307 11.3161C79.5281 10.9994 80.111 10.8436 80.7001 10.8699C83.0001 10.9099 84.3701 12.6299 84.3701 15.6299L84.3301 15.6099ZM81.3301 15.6099C81.3301 14.1499 80.6601 13.2199 79.6101 13.2199C78.5601 13.2199 77.8901 14.1599 77.8801 15.6099C77.8701 17.0599 78.5601 17.9899 79.6101 17.9899C80.6601 17.9899 81.3301 17.0799 81.3301 15.6299V15.6099ZM89.4801 10.8099C91.9701 10.8099 93.4801 11.9899 93.5501 13.8799H90.8201C90.8201 13.2299 90.2801 12.8199 89.4501 12.8199C88.6201 12.8199 88.2501 13.1399 88.2501 13.6099C88.2501 14.0799 88.5801 14.2299 89.2501 14.3699L91.1701 14.7599C93.0001 15.1499 93.7801 15.8899 93.7801 17.2799C93.7801 19.1799 92.0501 20.3999 89.5001 20.3999C86.9501 20.3999 85.2801 19.1799 85.1501 17.3099H88.0401C88.1301 17.9899 88.6701 18.3899 89.5501 18.3899C90.4301 18.3899 90.8301 18.0999 90.8301 17.6199C90.8301 17.1399 90.5501 17.0399 89.8301 16.8899L88.1001 16.5199C86.3101 16.1499 85.3701 15.1999 85.3701 13.7999C85.3901 11.9999 87.0001 10.8299 89.4801 10.8299V10.8099ZM103.79 20.1799H100.9V18.4699H100.84C100.681 19.0441 100.331 19.5466 99.8469 19.894C99.3631 20.2415 98.7749 20.4129 98.1801 20.3799C97.7243 20.4058 97.2683 20.3336 96.8428 20.1681C96.4173 20.0027 96.0323 19.7478 95.7138 19.4207C95.3953 19.0937 95.1507 18.7021 94.9965 18.2724C94.8423 17.8427 94.7822 17.3849 94.8201 16.9299V10.9999H97.8201V16.2399C97.8201 17.3299 98.3801 17.9099 99.3101 17.9099C99.5282 17.9104 99.7439 17.8642 99.9426 17.7745C100.141 17.6848 100.319 17.5536 100.463 17.3898C100.607 17.226 100.714 17.0333 100.777 16.8246C100.841 16.6159 100.859 16.3961 100.83 16.1799V10.9999H103.83L103.79 20.1799ZM105.24 10.9999H108.14V12.7699H108.2C108.359 12.2034 108.702 11.7057 109.174 11.3546C109.646 11.0036 110.222 10.8191 110.81 10.8299C111.409 10.782 112.003 10.9611 112.476 11.3317C112.948 11.7023 113.264 12.2372 113.36 12.8299H113.42C113.602 12.2309 113.977 11.7092 114.488 11.3471C114.998 10.985 115.615 10.8031 116.24 10.8299C116.648 10.8162 117.054 10.8885 117.433 11.0421C117.811 11.1957 118.153 11.4271 118.435 11.7214C118.718 12.0156 118.936 12.3661 119.075 12.75C119.214 13.134 119.27 13.5428 119.24 13.9499V20.1999H116.24V14.7499C116.24 13.7499 115.79 13.2899 114.95 13.2899C114.763 13.2884 114.577 13.327 114.406 13.4032C114.235 13.4794 114.082 13.5914 113.958 13.7316C113.834 13.8719 113.741 14.0372 113.686 14.2163C113.632 14.3954 113.616 14.5842 113.64 14.7699V20.1999H110.79V14.7099C110.79 13.7899 110.34 13.2899 109.52 13.2899C109.331 13.29 109.143 13.3302 108.971 13.408C108.798 13.4857 108.644 13.5992 108.518 13.7409C108.392 13.8827 108.298 14.0495 108.242 14.2303C108.185 14.4111 108.168 14.6019 108.19 14.7899V20.1999H105.19L105.24 10.9999Z" fill="#394149"/>
<path d="M26.4801 8.62001C25.9712 7.45637 25.2976 6.37195 24.4801 5.40001C23.2716 3.92035 21.7634 2.71341 20.0548 1.85862C18.3462 1.00383 16.4759 0.520582 14.5671 0.440674C12.6583 0.360766 10.7542 0.68601 8.98012 1.395C7.20606 2.104 5.60227 3.18067 4.27429 4.55414C2.94631 5.92762 1.92426 7.56676 1.27541 9.36369C0.626558 11.1606 0.365615 13.0746 0.509756 14.9796C0.653898 16.8847 1.19986 18.7376 2.11169 20.4164C3.02353 22.0953 4.28058 23.562 5.8001 24.72C6.7751 25.4779 7.85245 26.094 9.0001 26.55C10.6091 27.2094 12.3312 27.549 14.0701 27.55C17.6595 27.5421 21.0993 26.1113 23.6356 23.5713C26.1718 21.0314 27.5975 17.5894 27.6001 14C27.6027 12.1485 27.2214 10.3166 26.4801 8.62001ZM14.0601 3.19001C15.6217 3.18984 17.1644 3.53115 18.5801 4.19001C18.2349 4.33918 17.8719 4.44337 17.5001 4.50001C16.2767 4.67711 15.1434 5.24509 14.2693 6.11918C13.3952 6.99328 12.8272 8.12661 12.6501 9.35001C12.5724 10.0361 12.2603 10.6744 11.7666 11.1572C11.2729 11.64 10.6278 11.9377 9.9401 12C8.71669 12.1771 7.58336 12.7451 6.70927 13.6192C5.83518 14.4933 5.26719 15.6266 5.0901 16.85C5.03014 17.5024 4.75179 18.1155 4.3001 18.59C3.52075 16.9433 3.17065 15.1261 3.28237 13.3077C3.39409 11.4893 3.964 9.72871 4.93907 8.18976C5.91414 6.65081 7.26267 5.38353 8.85917 4.50586C10.4557 3.62819 12.2483 3.16865 14.0701 3.17001L14.0601 3.19001ZM5.7901 21C5.9101 20.89 6.0301 20.79 6.1501 20.67C7.03975 19.8075 7.61081 18.6689 7.7701 17.44C7.83468 16.7493 8.1431 16.1041 8.6401 15.62C9.11835 15.1222 9.76207 14.8163 10.4501 14.76C11.6735 14.5829 12.8068 14.0149 13.6809 13.1408C14.555 12.2667 15.123 11.1334 15.3001 9.91001C15.3434 9.18752 15.6534 8.50685 16.1701 8.00001C16.6601 7.51186 17.31 7.21711 18.0001 7.17001C19.124 7.01537 20.1722 6.51573 21.0001 5.74001C21.9427 6.52208 22.7414 7.46291 23.3601 8.52001C23.3221 8.57136 23.2785 8.61832 23.2301 8.66001C22.7528 9.16221 22.1099 9.47477 21.4201 9.54001C20.1954 9.71401 19.0604 10.281 18.1857 11.1557C17.3111 12.0303 16.7441 13.1654 16.5701 14.39C16.4996 15.0784 16.1933 15.7213 15.7031 16.2098C15.2128 16.6982 14.5688 17.0021 13.8801 17.07C12.6531 17.2458 11.5156 17.8126 10.6364 18.6863C9.75725 19.5601 9.1834 20.6941 9.0001 21.92C8.94628 22.4087 8.77844 22.878 8.5101 23.29C7.4841 22.6808 6.56519 21.9072 5.7901 21ZM14.0601 24.86C13.0454 24.8611 12.0355 24.7197 11.0601 24.44C11.3938 23.818 11.6107 23.1402 11.7001 22.44C11.7702 21.7531 12.0751 21.1114 12.5633 20.6232C13.0515 20.135 13.6932 19.8301 14.3801 19.76C15.6053 19.5849 16.7409 19.0178 17.617 18.1435C18.493 17.2693 19.0625 16.1349 19.2401 14.91C19.3102 14.2231 19.6151 13.5814 20.1033 13.0932C20.5915 12.605 21.2332 12.3001 21.9201 12.23C22.8421 12.1101 23.7209 11.7668 24.4801 11.23C24.9017 12.8279 24.9516 14.5012 24.6261 16.1214C24.3006 17.7416 23.6082 19.2657 22.6022 20.5768C21.5962 21.8879 20.3033 22.9511 18.8225 23.6849C17.3418 24.4187 15.7127 24.8036 14.0601 24.81V24.86Z" fill="#394149"/>
</svg>
