<svg width="50" height="50" viewBox="0 0 50 50" fill="none" xmlns="http://www.w3.org/2000/svg">
<path d="M0 5C0 2.23858 2.23858 0 5 0H45C47.7614 0 50 2.23858 50 5V45C50 47.7614 47.7614 50 45 50H5C2.23858 50 0 47.7614 0 45V5Z" fill="#0B192C"/>
<path d="M24.7982 35.9756C23.5055 35.9756 22.3714 35.7805 21.3958 35.3902C20.4445 34.9756 19.7006 34.3049 19.164 33.378C18.6275 32.4268 18.3592 31.1341 18.3592 29.5V21.6707H15.2128V17.5366H18.3592L18.908 12.5244H23.2982V17.5366H28.164V21.6707H23.2982V29.5732C23.2982 30.4024 23.4811 30.9756 23.847 31.2927C24.2128 31.6098 24.8348 31.7683 25.7128 31.7683H28.1275V35.9756H24.7982Z" fill="white"/>
<path d="M24.8208 44.0244V39.8171H26.3208C27.1013 39.8171 27.65 39.6585 27.9671 39.3415C28.3086 39.0244 28.4793 38.5122 28.4793 37.8049V17.5366H33.4183V37.7683C33.4183 39.2805 33.15 40.4878 32.6135 41.3902C32.1013 42.3171 31.3696 42.9878 30.4183 43.4024C29.4671 43.8171 28.3452 44.0244 27.0525 44.0244H24.8208ZM30.9671 15.0122C30.0647 15.0122 29.333 14.7561 28.772 14.2439C28.211 13.7073 27.9305 13.0366 27.9305 12.2317C27.9305 11.4268 28.211 10.7683 28.772 10.2561C29.333 9.71951 30.0647 9.45122 30.9671 9.45122C31.8696 9.45122 32.6013 9.71951 33.1622 10.2561C33.7232 10.7683 34.0037 11.4268 34.0037 12.2317C34.0037 13.0366 33.7232 13.7073 33.1622 14.2439C32.6013 14.7561 31.8696 15.0122 30.9671 15.0122Z" fill="white"/>
</svg>
